<svg width="177" height="53" viewBox="0 0 177 53" fill="none" xmlns="http://www.w3.org/2000/svg">
<path d="M32.4297 45.0039V52H6.73047V45.0039H32.4297ZM9.19141 0.8125V52H0.367188V0.8125H9.19141ZM77.7461 25V27.8125C77.7461 31.6797 77.2422 35.1484 76.2344 38.2188C75.2266 41.2891 73.7852 43.9023 71.9102 46.0586C70.0586 48.2148 67.832 49.8672 65.2305 51.0156C62.6289 52.1406 59.7461 52.7031 56.582 52.7031C53.4414 52.7031 50.5703 52.1406 47.9688 51.0156C45.3906 49.8672 43.1523 48.2148 41.2539 46.0586C39.3555 43.9023 37.8789 41.2891 36.8242 38.2188C35.793 35.1484 35.2773 31.6797 35.2773 27.8125V25C35.2773 21.1328 35.793 17.6758 36.8242 14.6289C37.8555 11.5586 39.3086 8.94531 41.1836 6.78906C43.082 4.60938 45.3203 2.95703 47.8984 1.83203C50.5 0.683594 53.3711 0.109375 56.5117 0.109375C59.6758 0.109375 62.5586 0.683594 65.1602 1.83203C67.7617 2.95703 70 4.60938 71.875 6.78906C73.75 8.94531 75.1914 11.5586 76.1992 14.6289C77.2305 17.6758 77.7461 21.1328 77.7461 25ZM68.9219 27.8125V24.9297C68.9219 22.0703 68.6406 19.5508 68.0781 17.3711C67.5391 15.168 66.7305 13.3281 65.6523 11.8516C64.5977 10.3516 63.2969 9.22656 61.75 8.47656C60.2031 7.70312 58.457 7.31641 56.5117 7.31641C54.5664 7.31641 52.832 7.70312 51.3086 8.47656C49.7852 9.22656 48.4844 10.3516 47.4062 11.8516C46.3516 13.3281 45.543 15.168 44.9805 17.3711C44.418 19.5508 44.1367 22.0703 44.1367 24.9297V27.8125C44.1367 30.6719 44.418 33.2031 44.9805 35.4062C45.543 37.6094 46.3633 39.4727 47.4414 40.9961C48.543 42.4961 49.8555 43.6328 51.3789 44.4062C52.9023 45.1562 54.6367 45.5312 56.582 45.5312C58.5508 45.5312 60.2969 45.1562 61.8203 44.4062C63.3438 43.6328 64.6328 42.4961 65.6875 40.9961C66.7422 39.4727 67.5391 37.6094 68.0781 35.4062C68.6406 33.2031 68.9219 30.6719 68.9219 27.8125ZM125.875 25.8438V45.3906C125.148 46.3516 124.012 47.4062 122.465 48.5547C120.941 49.6797 118.914 50.6523 116.383 51.4727C113.852 52.293 110.699 52.7031 106.926 52.7031C103.715 52.7031 100.773 52.1641 98.1016 51.0859C95.4297 49.9844 93.1211 48.3789 91.1758 46.2695C89.2539 44.1602 87.7656 41.5938 86.7109 38.5703C85.6562 35.5234 85.1289 32.0547 85.1289 28.1641V24.6133C85.1289 20.7461 85.6094 17.3008 86.5703 14.2773C87.5547 11.2305 88.9609 8.65234 90.7891 6.54297C92.6172 4.43359 94.8203 2.83984 97.3984 1.76172C100 0.660156 102.941 0.109375 106.223 0.109375C110.418 0.109375 113.887 0.8125 116.629 2.21875C119.395 3.60156 121.527 5.52344 123.027 7.98438C124.527 10.4453 125.477 13.2578 125.875 16.4219H117.227C116.945 14.6406 116.395 13.0469 115.574 11.6406C114.777 10.2344 113.629 9.13281 112.129 8.33594C110.652 7.51563 108.73 7.10547 106.363 7.10547C104.324 7.10547 102.531 7.49219 100.984 8.26562C99.4375 9.03906 98.1484 10.1758 97.1172 11.6758C96.1094 13.1758 95.3477 15.0039 94.832 17.1602C94.3164 19.3164 94.0586 21.7773 94.0586 24.543V28.1641C94.0586 30.9766 94.3516 33.4727 94.9375 35.6523C95.5469 37.832 96.4141 39.6719 97.5391 41.1719C98.6875 42.6719 100.082 43.8086 101.723 44.582C103.363 45.332 105.215 45.707 107.277 45.707C109.293 45.707 110.945 45.543 112.234 45.2148C113.523 44.8633 114.543 44.4531 115.293 43.9844C116.066 43.4922 116.664 43.0234 117.086 42.5781V32.418H106.434V25.8438H125.875ZM176.465 25V27.8125C176.465 31.6797 175.961 35.1484 174.953 38.2188C173.945 41.2891 172.504 43.9023 170.629 46.0586C168.777 48.2148 166.551 49.8672 163.949 51.0156C161.348 52.1406 158.465 52.7031 155.301 52.7031C152.16 52.7031 149.289 52.1406 146.688 51.0156C144.109 49.8672 141.871 48.2148 139.973 46.0586C138.074 43.9023 136.598 41.2891 135.543 38.2188C134.512 35.1484 133.996 31.6797 133.996 27.8125V25C133.996 21.1328 134.512 17.6758 135.543 14.6289C136.574 11.5586 138.027 8.94531 139.902 6.78906C141.801 4.60938 144.039 2.95703 146.617 1.83203C149.219 0.683594 152.09 0.109375 155.23 0.109375C158.395 0.109375 161.277 0.683594 163.879 1.83203C166.48 2.95703 168.719 4.60938 170.594 6.78906C172.469 8.94531 173.91 11.5586 174.918 14.6289C175.949 17.6758 176.465 21.1328 176.465 25ZM167.641 27.8125V24.9297C167.641 22.0703 167.359 19.5508 166.797 17.3711C166.258 15.168 165.449 13.3281 164.371 11.8516C163.316 10.3516 162.016 9.22656 160.469 8.47656C158.922 7.70312 157.176 7.31641 155.23 7.31641C153.285 7.31641 151.551 7.70312 150.027 8.47656C148.504 9.22656 147.203 10.3516 146.125 11.8516C145.07 13.3281 144.262 15.168 143.699 17.3711C143.137 19.5508 142.855 22.0703 142.855 24.9297V27.8125C142.855 30.6719 143.137 33.2031 143.699 35.4062C144.262 37.6094 145.082 39.4727 146.16 40.9961C147.262 42.4961 148.574 43.6328 150.098 44.4062C151.621 45.1562 153.355 45.5312 155.301 45.5312C157.27 45.5312 159.016 45.1562 160.539 44.4062C162.062 43.6328 163.352 42.4961 164.406 40.9961C165.461 39.4727 166.258 37.6094 166.797 35.4062C167.359 33.2031 167.641 30.6719 167.641 27.8125Z" fill="#2F2CAB"/>
</svg>
