<svg width="272" height="194" viewBox="0 0 272 194" fill="none" xmlns="http://www.w3.org/2000/svg">
<g filter="url(#filter0_ddddd_20_131584)">
<rect x="22" y="4" width="228" height="114" rx="8" fill="white"/>
<path d="M80.8047 78.9414V85.9375H55.1055V78.9414H80.8047ZM57.5664 34.75V85.9375H48.7422V34.75H57.5664ZM126.121 58.9375V61.75C126.121 65.6172 125.617 69.0859 124.609 72.1562C123.602 75.2266 122.16 77.8398 120.285 79.9961C118.434 82.1523 116.207 83.8047 113.605 84.9531C111.004 86.0781 108.121 86.6406 104.957 86.6406C101.816 86.6406 98.9453 86.0781 96.3438 84.9531C93.7656 83.8047 91.5273 82.1523 89.6289 79.9961C87.7305 77.8398 86.2539 75.2266 85.1992 72.1562C84.168 69.0859 83.6523 65.6172 83.6523 61.75V58.9375C83.6523 55.0703 84.168 51.6133 85.1992 48.5664C86.2305 45.4961 87.6836 42.8828 89.5586 40.7266C91.457 38.5469 93.6953 36.8945 96.2734 35.7695C98.875 34.6211 101.746 34.0469 104.887 34.0469C108.051 34.0469 110.934 34.6211 113.535 35.7695C116.137 36.8945 118.375 38.5469 120.25 40.7266C122.125 42.8828 123.566 45.4961 124.574 48.5664C125.605 51.6133 126.121 55.0703 126.121 58.9375ZM117.297 61.75V58.8672C117.297 56.0078 117.016 53.4883 116.453 51.3086C115.914 49.1055 115.105 47.2656 114.027 45.7891C112.973 44.2891 111.672 43.1641 110.125 42.4141C108.578 41.6406 106.832 41.2539 104.887 41.2539C102.941 41.2539 101.207 41.6406 99.6836 42.4141C98.1602 43.1641 96.8594 44.2891 95.7812 45.7891C94.7266 47.2656 93.918 49.1055 93.3555 51.3086C92.793 53.4883 92.5117 56.0078 92.5117 58.8672V61.75C92.5117 64.6094 92.793 67.1406 93.3555 69.3438C93.918 71.5469 94.7383 73.4102 95.8164 74.9336C96.918 76.4336 98.2305 77.5703 99.7539 78.3438C101.277 79.0938 103.012 79.4688 104.957 79.4688C106.926 79.4688 108.672 79.0938 110.195 78.3438C111.719 77.5703 113.008 76.4336 114.062 74.9336C115.117 73.4102 115.914 71.5469 116.453 69.3438C117.016 67.1406 117.297 64.6094 117.297 61.75ZM174.25 59.7812V79.3281C173.523 80.2891 172.387 81.3438 170.84 82.4922C169.316 83.6172 167.289 84.5898 164.758 85.4102C162.227 86.2305 159.074 86.6406 155.301 86.6406C152.09 86.6406 149.148 86.1016 146.477 85.0234C143.805 83.9219 141.496 82.3164 139.551 80.207C137.629 78.0977 136.141 75.5312 135.086 72.5078C134.031 69.4609 133.504 65.9922 133.504 62.1016V58.5508C133.504 54.6836 133.984 51.2383 134.945 48.2148C135.93 45.168 137.336 42.5898 139.164 40.4805C140.992 38.3711 143.195 36.7773 145.773 35.6992C148.375 34.5977 151.316 34.0469 154.598 34.0469C158.793 34.0469 162.262 34.75 165.004 36.1562C167.77 37.5391 169.902 39.4609 171.402 41.9219C172.902 44.3828 173.852 47.1953 174.25 50.3594H165.602C165.32 48.5781 164.77 46.9844 163.949 45.5781C163.152 44.1719 162.004 43.0703 160.504 42.2734C159.027 41.4531 157.105 41.043 154.738 41.043C152.699 41.043 150.906 41.4297 149.359 42.2031C147.812 42.9766 146.523 44.1133 145.492 45.6133C144.484 47.1133 143.723 48.9414 143.207 51.0977C142.691 53.2539 142.434 55.7148 142.434 58.4805V62.1016C142.434 64.9141 142.727 67.4102 143.312 69.5898C143.922 71.7695 144.789 73.6094 145.914 75.1094C147.062 76.6094 148.457 77.7461 150.098 78.5195C151.738 79.2695 153.59 79.6445 155.652 79.6445C157.668 79.6445 159.32 79.4805 160.609 79.1523C161.898 78.8008 162.918 78.3906 163.668 77.9219C164.441 77.4297 165.039 76.9609 165.461 76.5156V66.3555H154.809V59.7812H174.25ZM224.84 58.9375V61.75C224.84 65.6172 224.336 69.0859 223.328 72.1562C222.32 75.2266 220.879 77.8398 219.004 79.9961C217.152 82.1523 214.926 83.8047 212.324 84.9531C209.723 86.0781 206.84 86.6406 203.676 86.6406C200.535 86.6406 197.664 86.0781 195.062 84.9531C192.484 83.8047 190.246 82.1523 188.348 79.9961C186.449 77.8398 184.973 75.2266 183.918 72.1562C182.887 69.0859 182.371 65.6172 182.371 61.75V58.9375C182.371 55.0703 182.887 51.6133 183.918 48.5664C184.949 45.4961 186.402 42.8828 188.277 40.7266C190.176 38.5469 192.414 36.8945 194.992 35.7695C197.594 34.6211 200.465 34.0469 203.605 34.0469C206.77 34.0469 209.652 34.6211 212.254 35.7695C214.855 36.8945 217.094 38.5469 218.969 40.7266C220.844 42.8828 222.285 45.4961 223.293 48.5664C224.324 51.6133 224.84 55.0703 224.84 58.9375ZM216.016 61.75V58.8672C216.016 56.0078 215.734 53.4883 215.172 51.3086C214.633 49.1055 213.824 47.2656 212.746 45.7891C211.691 44.2891 210.391 43.1641 208.844 42.4141C207.297 41.6406 205.551 41.2539 203.605 41.2539C201.66 41.2539 199.926 41.6406 198.402 42.4141C196.879 43.1641 195.578 44.2891 194.5 45.7891C193.445 47.2656 192.637 49.1055 192.074 51.3086C191.512 53.4883 191.23 56.0078 191.23 58.8672V61.75C191.23 64.6094 191.512 67.1406 192.074 69.3438C192.637 71.5469 193.457 73.4102 194.535 74.9336C195.637 76.4336 196.949 77.5703 198.473 78.3438C199.996 79.0938 201.73 79.4688 203.676 79.4688C205.645 79.4688 207.391 79.0938 208.914 78.3438C210.438 77.5703 211.727 76.4336 212.781 74.9336C213.836 73.4102 214.633 71.5469 215.172 69.3438C215.734 67.1406 216.016 64.6094 216.016 61.75Z" fill="#2F2CAB"/>
</g>
<defs>
<filter id="filter0_ddddd_20_131584" x="0" y="0" width="272" height="194" filterUnits="userSpaceOnUse" color-interpolation-filters="sRGB">
<feFlood flood-opacity="0" result="BackgroundImageFix"/>
<feColorMatrix in="SourceAlpha" type="matrix" values="0 0 0 0 0 0 0 0 0 0 0 0 0 0 0 0 0 0 127 0" result="hardAlpha"/>
<feOffset/>
<feColorMatrix type="matrix" values="0 0 0 0 0.184314 0 0 0 0 0.172549 0 0 0 0 0.670588 0 0 0 0.1 0"/>
<feBlend mode="normal" in2="BackgroundImageFix" result="effect1_dropShadow_20_131584"/>
<feColorMatrix in="SourceAlpha" type="matrix" values="0 0 0 0 0 0 0 0 0 0 0 0 0 0 0 0 0 0 127 0" result="hardAlpha"/>
<feOffset dy="3"/>
<feGaussianBlur stdDeviation="3.5"/>
<feColorMatrix type="matrix" values="0 0 0 0 0.184314 0 0 0 0 0.172549 0 0 0 0 0.670588 0 0 0 0.1 0"/>
<feBlend mode="normal" in2="effect1_dropShadow_20_131584" result="effect2_dropShadow_20_131584"/>
<feColorMatrix in="SourceAlpha" type="matrix" values="0 0 0 0 0 0 0 0 0 0 0 0 0 0 0 0 0 0 127 0" result="hardAlpha"/>
<feOffset dy="14"/>
<feGaussianBlur stdDeviation="7"/>
<feColorMatrix type="matrix" values="0 0 0 0 0.184314 0 0 0 0 0.172549 0 0 0 0 0.670588 0 0 0 0.09 0"/>
<feBlend mode="normal" in2="effect2_dropShadow_20_131584" result="effect3_dropShadow_20_131584"/>
<feColorMatrix in="SourceAlpha" type="matrix" values="0 0 0 0 0 0 0 0 0 0 0 0 0 0 0 0 0 0 127 0" result="hardAlpha"/>
<feOffset dy="31"/>
<feGaussianBlur stdDeviation="9"/>
<feColorMatrix type="matrix" values="0 0 0 0 0.184314 0 0 0 0 0.172549 0 0 0 0 0.670588 0 0 0 0.05 0"/>
<feBlend mode="normal" in2="effect3_dropShadow_20_131584" result="effect4_dropShadow_20_131584"/>
<feColorMatrix in="SourceAlpha" type="matrix" values="0 0 0 0 0 0 0 0 0 0 0 0 0 0 0 0 0 0 127 0" result="hardAlpha"/>
<feOffset dy="54"/>
<feGaussianBlur stdDeviation="11"/>
<feColorMatrix type="matrix" values="0 0 0 0 0.184314 0 0 0 0 0.172549 0 0 0 0 0.670588 0 0 0 0.01 0"/>
<feBlend mode="normal" in2="effect4_dropShadow_20_131584" result="effect5_dropShadow_20_131584"/>
<feBlend mode="normal" in="SourceGraphic" in2="effect5_dropShadow_20_131584" result="shape"/>
</filter>
</defs>
</svg>
