<svg width="30" height="32" viewBox="0 0 30 32" fill="none" xmlns="http://www.w3.org/2000/svg">
<path d="M28.0035 5.92097C25.6083 5.68294 23.2131 5.50442 20.8031 5.37053V5.35565L20.4758 3.42166C20.2526 2.053 19.9254 0 16.4442 0H12.5465C9.08017 0 8.75288 1.96374 8.51485 3.40679L8.20244 5.31102C6.81889 5.40028 5.43535 5.48954 4.05181 5.62343L1.01694 5.92097C0.392116 5.98047 -0.054188 6.53092 0.00531923 7.14086C0.0648264 7.75081 0.600391 8.19712 1.22522 8.13761L4.26008 7.84007C12.0555 7.06648 19.9105 7.36402 27.7952 8.15249H27.9142C28.4795 8.15249 28.9705 7.72106 29.03 7.14086C29.0524 6.84368 28.9574 6.54955 28.7656 6.32152C28.5737 6.09348 28.3001 5.94969 28.0035 5.92097ZM25.2661 10.2501C24.9091 9.8782 24.4181 9.66992 23.9123 9.66992H5.10806C4.60225 9.66992 4.09644 9.8782 3.75427 10.2501C3.41211 10.622 3.21871 11.1278 3.24846 11.6485L4.17082 26.9121C4.33447 29.1734 4.54274 32 9.73475 32H19.2857C24.4777 32 24.6859 29.1883 24.8496 26.9121L25.7719 11.6634C25.8017 11.1278 25.6083 10.622 25.2661 10.2501ZM16.9797 24.5467H12.0258C11.4158 24.5467 10.91 24.0409 10.91 23.431C10.91 22.821 11.4158 22.3152 12.0258 22.3152H16.9797C17.5897 22.3152 18.0955 22.821 18.0955 23.431C18.0955 24.0409 17.5897 24.5467 16.9797 24.5467ZM18.2294 18.596H10.791C10.1811 18.596 9.67524 18.0902 9.67524 17.4802C9.67524 16.8703 10.1811 16.3645 10.791 16.3645H18.2294C18.8393 16.3645 19.3452 16.8703 19.3452 17.4802C19.3452 18.0902 18.8393 18.596 18.2294 18.596Z" fill="#2F2CAB"/>
</svg>
