<svg width="72" height="72" viewBox="0 0 72 72" fill="none" xmlns="http://www.w3.org/2000/svg">
<rect x="0.5" y="0.5" width="71" height="71" rx="7.5" fill="white" stroke="#2F2CAB"/>
<path d="M58.35 31.113H50.547C44.148 31.113 38.937 25.902 38.937 19.503V11.7C38.937 10.215 37.722 9 36.237 9H24.789C16.473 9 9.75 14.4 9.75 24.039V47.961C9.75 57.6 16.473 63 24.789 63H46.011C54.327 63 61.05 57.6 61.05 47.961V33.813C61.05 32.328 59.835 31.113 58.35 31.113Z" fill="#2F2CAB"/>
<path d="M45.6597 9.56699C44.5527 8.45999 42.6357 9.21599 42.6357 10.755V20.178C42.6357 24.12 45.9837 27.387 50.0607 27.387C52.6257 27.414 56.1897 27.414 59.2407 27.414C60.7797 27.414 61.5897 25.605 60.5097 24.525C56.6217 20.61 49.6557 13.563 45.6597 9.56699Z" fill="#2F2CAB"/>
</svg>
