<svg width="64" height="64" viewBox="0 0 64 64" fill="none" xmlns="http://www.w3.org/2000/svg">
<rect width="64" height="64" rx="8" fill="#2F2CAB"/>
<path d="M51.8665 27.656H44.9305C39.2425 27.656 34.6105 23.024 34.6105 17.336V10.4C34.6105 9.08 33.5305 8 32.2105 8H22.0345C14.6425 8 8.6665 12.8 8.6665 21.368V42.632C8.6665 51.2 14.6425 56 22.0345 56H40.8985C48.2905 56 54.2665 51.2 54.2665 42.632V30.056C54.2665 28.736 53.1865 27.656 51.8665 27.656ZM32.1385 41.072L27.3385 45.872C27.1705 46.04 26.9545 46.184 26.7385 46.256C26.5277 46.3528 26.2985 46.4029 26.0665 46.4029C25.8345 46.4029 25.6053 46.3528 25.3945 46.256C25.1959 46.173 25.0163 46.0505 24.8665 45.896C24.8425 45.872 24.8185 45.872 24.8185 45.848L20.0185 41.048C19.6838 40.7093 19.496 40.2522 19.496 39.776C19.496 39.2998 19.6838 38.8427 20.0185 38.504C20.7145 37.808 21.8665 37.808 22.5625 38.504L24.2665 40.256V30.2C24.2665 29.216 25.0825 28.4 26.0665 28.4C27.0505 28.4 27.8665 29.216 27.8665 30.2V40.256L29.5945 38.528C30.2905 37.832 31.4425 37.832 32.1385 38.528C32.8345 39.224 32.8345 40.376 32.1385 41.072Z" fill="white"/>
<path d="M44.4984 24.344C46.7784 24.368 49.9464 24.368 52.6584 24.368C54.0264 24.368 54.7464 22.76 53.7864 21.8C50.3304 18.32 44.1384 12.056 40.5864 8.50398C39.6024 7.51998 37.8984 8.19198 37.8984 9.55998V17.936C37.8984 21.44 40.8744 24.344 44.4984 24.344Z" fill="white"/>
</svg>
