<svg width="64" height="64" viewBox="0 0 64 64" fill="none" xmlns="http://www.w3.org/2000/svg">
<rect width="64" height="64" rx="8" fill="#2F2CAB"/>
<path d="M52.5334 27.656H45.5974C39.9094 27.656 35.2774 23.024 35.2774 17.336V10.4C35.2774 9.08 34.1974 8 32.8774 8H22.7014C15.3094 8 9.33337 12.8 9.33337 21.368V42.632C9.33337 51.2 15.3094 56 22.7014 56H41.5654C48.9574 56 54.9334 51.2 54.9334 42.632V30.056C54.9334 28.736 53.8534 27.656 52.5334 27.656ZM31.0054 35.672C30.6454 36.032 30.1894 36.2 29.7334 36.2C29.2774 36.2 28.8214 36.032 28.4614 35.672L26.7334 33.944V44C26.7334 44.984 25.9174 45.8 24.9334 45.8C23.9494 45.8 23.1334 44.984 23.1334 44V33.944L21.4054 35.672C20.7094 36.368 19.5574 36.368 18.8614 35.672C18.5266 35.3333 18.3389 34.8762 18.3389 34.4C18.3389 33.9238 18.5266 33.4667 18.8614 33.128L23.6614 28.328C23.8294 28.184 23.9974 28.064 24.1894 27.968C24.2374 27.944 24.3094 27.92 24.3574 27.896C24.5014 27.848 24.6454 27.824 24.8134 27.8H25.0054C25.1974 27.8 25.3894 27.848 25.5814 27.92H25.6294C25.8214 27.992 26.0134 28.136 26.1574 28.28C26.1814 28.304 26.2054 28.304 26.2054 28.328L31.0054 33.128C31.7014 33.824 31.7014 34.976 31.0054 35.672Z" fill="white"/>
<path d="M45.1654 24.344C47.4454 24.368 50.6134 24.368 53.3254 24.368C54.6934 24.368 55.4134 22.76 54.4534 21.8C50.9974 18.32 44.8054 12.056 41.2534 8.504C40.2694 7.52 38.5654 8.192 38.5654 9.56V17.936C38.5654 21.44 41.5414 24.344 45.1654 24.344Z" fill="white"/>
</svg>
