<svg width="28" height="36" viewBox="0 0 28 36" fill="none" xmlns="http://www.w3.org/2000/svg">
<path d="M24 12H22.2857V8.57143C22.2857 3.84 18.4457 0 13.7143 0C8.98286 0 5.14286 3.84 5.14286 8.57143V12H3.42857C1.54286 12 0 13.5429 0 15.4286V32.5714C0 34.4571 1.54286 36 3.42857 36H24C25.8857 36 27.4286 34.4571 27.4286 32.5714V15.4286C27.4286 13.5429 25.8857 12 24 12ZM8.57143 8.57143C8.57143 5.72571 10.8686 3.42857 13.7143 3.42857C16.56 3.42857 18.8571 5.72571 18.8571 8.57143V12H8.57143V8.57143ZM24 32.5714H3.42857V15.4286H24V32.5714ZM13.7143 27.4286C15.6 27.4286 17.1429 25.8857 17.1429 24C17.1429 22.1143 15.6 20.5714 13.7143 20.5714C11.8286 20.5714 10.2857 22.1143 10.2857 24C10.2857 25.8857 11.8286 27.4286 13.7143 27.4286Z" fill="#2F2CAB"/>
</svg>
